<svg width="50" height="50" viewBox="0 0 50 50" fill="none" xmlns="http://www.w3.org/2000/svg">
<g clip-path="url(#clip0)">
<path d="M16.3794 27.5863H23.2759V34.4829H16.3794V27.5863Z" fill="#E1B494"/>
<path d="M29.3102 9.48279V19.8276C29.3102 25.0648 25.0647 29.3104 19.8275 29.3104C14.5903 29.3104 10.3447 25.0648 10.3447 19.8276V9.48279H29.3102Z" fill="#F2CBA7"/>
<path d="M18.1035 19.8277H16.3794V18.9656C16.3794 18.4895 15.9934 18.1035 15.5174 18.1035C15.0413 18.1035 14.6553 18.4895 14.6553 18.9656V19.8277H12.9312V18.9656C12.9312 17.5373 14.089 16.3794 15.5174 16.3794C16.9457 16.3794 18.1035 17.5373 18.1035 18.9656V19.8277Z" fill="#505968"/>
<path d="M26.7241 19.8277H25V18.9656C25 18.4895 24.614 18.1035 24.1379 18.1035C23.6619 18.1035 23.2759 18.4895 23.2759 18.9656V19.8277H21.5518V18.9656C21.5518 17.5373 22.7096 16.3794 24.1379 16.3794C25.5663 16.3794 26.7241 17.5373 26.7241 18.9656V19.8277Z" fill="#505968"/>
<path d="M17.2412 22.4137H22.4136V23.2758C22.4136 24.7041 21.2558 25.862 19.8274 25.862C18.3991 25.862 17.2412 24.7041 17.2412 23.2758V22.4137Z" fill="#EE2849"/>
<path d="M10.3448 17.2413H8.62062C7.66836 17.2413 6.89648 18.0132 6.89648 18.9655C6.89648 19.9177 7.66836 20.6896 8.62062 20.6896H10.3448V17.2413Z" fill="#E1B494"/>
<path d="M29.3101 17.2413H31.0342C31.9865 17.2413 32.7583 18.0132 32.7583 18.9655C32.7583 19.9177 31.9865 20.6896 31.0342 20.6896H29.3101V17.2413Z" fill="#E1B494"/>
<path d="M10.3448 10.3448H29.3103V9.48276C29.3103 4.24558 25.0647 0 19.8275 0H5.17236V5.17241C5.17236 8.02909 7.4881 10.3448 10.3448 10.3448Z" fill="#FAA41B"/>
<path d="M29.3101 14.6551H26.7239C24.3434 14.6551 22.4136 12.7252 22.4136 10.3447H29.3101V14.6551Z" fill="#F08015"/>
<path d="M16.3795 31.0345H11.2071C7.39826 31.0345 4.31055 34.1223 4.31055 37.9311V50.0001H35.345V37.9311C35.345 34.1223 32.2573 31.0345 28.4485 31.0345H23.2761C23.2761 32.939 21.7322 34.4828 19.8278 34.4828C17.9234 34.4828 16.3795 32.939 16.3795 31.0345Z" fill="#FF7A00"/>
<path d="M35.3448 50.0001C41.0581 50.0001 45.6897 45.3685 45.6897 39.6553C45.6897 33.942 41.0581 29.3104 35.3448 29.3104C29.6315 29.3104 25 33.942 25 39.6553C25 45.3685 29.6315 50.0001 35.3448 50.0001Z" fill="#1598FC"/>
<path d="M33.6206 34.4828H37.0689V37.9311H40.5172V41.3793H37.0689V44.8276H33.6206V41.3793H30.1724V37.9311H33.6206V34.4828Z" fill="#EFF2FA"/>
</g>
<defs>
<clipPath id="clip0">
<rect width="50" height="50" fill="white"/>
</clipPath>
</defs>
</svg>
