<svg width="50" height="50" viewBox="0 0 50 50" fill="none" xmlns="http://www.w3.org/2000/svg">
<g clip-path="url(#clip0)">
<path d="M17.7083 0V20.8333H0V7.29167C0 6.85417 0.270833 6.45833 0.666667 6.3125L17.3333 0.0625L17.7083 0Z" fill="#78909C"/>
<path d="M35.4168 20.8333C35.3335 39.7082 18.1043 43.6874 17.9377 43.7291L17.7085 43.7499V20.8333H35.4168Z" fill="#78909C"/>
<path d="M2.54167 5.61035L0.666667 6.31243C0.270833 6.45827 0 6.8541 0 7.2916V20.8333H17.7083V20.777L2.54167 5.61035Z" fill="#687D88"/>
<path d="M17.7647 20.8333H17.7085V43.7499L17.9377 43.7291C18.0522 43.6999 26.2627 41.802 31.3897 34.4562L17.7647 20.8333Z" fill="#687D88"/>
<path d="M35.4168 7.29167V20.8333H17.7085V0L18.0835 0.0625L34.7502 6.3125C35.146 6.45833 35.4168 6.85417 35.4168 7.29167Z" fill="#CFD8DC"/>
<path d="M17.7083 20.8333V43.7499L17.4792 43.7291C17.3125 43.6874 0.0833333 39.7082 0 20.8333H17.7083Z" fill="#CFD8DC"/>
<path d="M17.7085 0V20.8333H17.7106L32.9189 5.625L18.0835 0.0625L17.7085 0Z" fill="#B4BCC0"/>
<path d="M17.7083 20.8333H0C0.0270833 26.727 1.725 31.1687 4.05208 34.4916L17.7083 20.8333Z" fill="#B4BCC0"/>
<path d="M36.4582 22.9167C28.9915 22.9167 22.9165 28.9917 22.9165 36.4584C22.9165 43.9251 28.9915 50.0001 36.4582 50.0001C43.9249 50.0001 49.9999 43.9251 49.9999 36.4584C49.9999 28.9917 43.9249 22.9167 36.4582 22.9167Z" fill="#FF7A00"/>
<path d="M43.2334 33.1438L35.9417 41.4772C35.5625 41.9105 35.023 42.1688 34.4438 42.1876H34.375C33.8229 42.1876 33.2917 41.9688 32.9021 41.5772L28.7354 37.4105C27.9209 36.5959 27.9209 35.2792 28.7354 34.4647C29.55 33.6501 30.8667 33.6501 31.6813 34.4647L34.2729 37.0563L40.1 30.398C40.8563 29.5355 42.173 29.4438 43.0375 30.2022C43.9042 30.9605 43.9917 32.2772 43.2334 33.1438Z" fill="white"/>
<path d="M36.4582 22.9167C28.9915 22.9167 22.9165 28.9917 22.9165 36.4584C22.9165 43.9251 28.9915 50.0001 36.4582 50.0001V40.8855L35.9415 41.4772C35.5623 41.9105 35.0227 42.1688 34.4436 42.1876H34.3748C33.8227 42.1876 33.2915 41.9688 32.9019 41.5772L28.7352 37.4105C27.9207 36.5959 27.9207 35.2792 28.7352 34.4647C29.1415 34.0584 29.6748 33.8542 30.2082 33.8542C30.7415 33.8542 31.2748 34.0584 31.6811 34.4647L34.2727 37.0563L36.4582 34.5605V22.9167Z" fill="#B55701"/>
<path d="M30.2084 33.8541C29.675 33.8541 29.1417 34.0583 28.7354 34.4645C27.9209 35.2791 27.9209 36.5958 28.7354 37.4104L32.9021 41.577C33.2938 41.9687 33.8229 42.1875 34.375 42.1875H34.4438C35.0209 42.1687 35.5625 41.9104 35.9417 41.477L36.4584 40.8854V34.5604L34.2729 37.0562L31.6813 34.4645C31.275 34.0583 30.7417 33.8541 30.2084 33.8541Z" fill="#DEDEDE"/>
</g>
<defs>
<clipPath id="clip0">
<rect width="50" height="50" fill="white"/>
</clipPath>
</defs>
</svg>
