<svg width="30" height="30" viewBox="0 0 30 30" fill="none" xmlns="http://www.w3.org/2000/svg">
<path d="M0 8.11523H8.11523V0H0V8.11523ZM1.75781 1.75781H6.35742V6.35742H1.75781V1.75781Z" fill="#FF7A00"/>
<path d="M21.8848 0V8.11523H30V0H21.8848ZM28.2422 6.35742H23.6426V1.75781H28.2422V6.35742Z" fill="#FF7A00"/>
<path d="M10.9424 8.11523H19.0576V0H10.9424V8.11523ZM12.7002 1.75781H17.2998V6.35742H12.7002V1.75781Z" fill="#FF7A00"/>
<path d="M0 19.0576H8.11523V10.9424H0V19.0576ZM1.75781 12.7002H6.35742V17.2998H1.75781V12.7002Z" fill="#FF7A00"/>
<path d="M21.8848 19.0576H30V10.9424H21.8848V19.0576ZM23.6426 12.7002H28.2422V17.2998H23.6426V12.7002Z" fill="#FF7A00"/>
<path d="M10.9424 19.0576H19.0576V10.9424H10.9424V19.0576ZM12.7002 12.7002H17.2998V17.2998H12.7002V12.7002Z" fill="#FF7A00"/>
<path d="M0 30H8.11523V21.8848H0V30ZM1.75781 23.6426H6.35742V28.2422H1.75781V23.6426Z" fill="#FF7A00"/>
<path d="M21.8848 30H30V21.8848H21.8848V30ZM23.6426 23.6426H28.2422V28.2422H23.6426V23.6426Z" fill="#FF7A00"/>
<path d="M10.9424 30H19.0576V21.8848H10.9424V30ZM12.7002 23.6426H17.2998V28.2422H12.7002V23.6426Z" fill="#FF7A00"/>
</svg>
