<svg width="41" height="40" viewBox="0 0 41 40" fill="none" xmlns="http://www.w3.org/2000/svg">
<path fill-rule="evenodd" clip-rule="evenodd" d="M4.07352 0C1.82378 0 0 1.82378 0 4.07353V27.3504C0 28.7541 0.710047 29.9921 1.79058 30.7246C2.48202 31.9889 3.82433 32.8463 5.36692 32.8463H34.7217C36.9714 32.8463 38.7952 31.0225 38.7952 28.7728V5.49589C38.7952 4.09214 38.0852 2.85424 37.0046 2.12173C36.3132 0.857446 34.9709 0 33.4283 0H4.07352ZM37.0046 2.12173C36.3534 1.68027 35.5677 1.42237 34.7217 1.42237H5.36693C3.11719 1.42237 1.29341 3.24615 1.29341 5.4959V28.7728C1.29341 29.4799 1.47361 30.145 1.79058 30.7246C2.44177 31.166 3.22753 31.4239 4.07352 31.4239H33.4283C35.678 31.4239 37.5018 29.6001 37.5018 27.3504V4.07352C37.5018 3.36637 37.3216 2.7013 37.0046 2.12173Z" fill="#F5F5F5"/>
<path d="M5.53891 2.48825C4.2948 2.79594 2.90353 4.08018 2.36843 5.41794L2.06075 6.18047L2.02061 17.9126C1.98048 30.9424 1.9671 30.7417 2.85002 32.1062C3.30486 32.8286 4.00049 33.4573 4.73626 33.8453C5.63256 34.3001 6.6225 34.3403 16.4015 34.3403H26.0735V37.2164C26.0735 39.9321 26.0869 40.0926 26.3143 39.9722C26.4347 39.8919 27.331 39.1696 28.2808 38.3401C29.244 37.5241 30.6887 36.28 31.5182 35.5977L33.0031 34.3403H34.5281C37.1234 34.3403 38.314 33.9791 39.4109 32.842C39.7186 32.5343 40.1467 31.9055 40.3474 31.4641L40.7219 30.6614V18.2872V5.91291L40.2805 5.01662C39.7989 4.02668 38.9695 3.19727 37.9795 2.72905L37.3775 2.43475L21.6589 2.40799C13.017 2.40799 5.76633 2.43475 5.53891 2.48825ZM18.8764 10.2606L18.9165 14.6752L21.592 11.7054C24.602 8.36101 25.4715 7.39782 26.341 6.47477L26.943 5.83265L28.5216 5.87278L30.0868 5.91291L28.856 7.31756C27.3042 9.0834 21.592 15.5581 21.1639 16.0264L20.8429 16.3742L23.0769 19.4376C27.1704 25.0428 30.5683 29.725 30.6754 29.8855C30.7556 30.0193 30.4078 30.0594 29.1102 30.0594H27.4514L25.418 27.3572C24.2943 25.8589 22.3679 23.3038 21.1372 21.6717L18.9165 18.7019L18.8764 24.374L18.8496 30.0594H17.5118H16.1741V25.8455V21.6316H14.1006H12.027V20.2269V18.8223H14.1006H16.1741V17.4176V16.013H14.1006H12.027V14.5414V13.0699H14.1006H16.1741V9.45797V5.84603H17.5118H18.8496L18.8764 10.2606Z" fill="#F5F5F5"/>
</svg>
