<svg width="25" height="25" viewBox="0 0 25 25" fill="none" xmlns="http://www.w3.org/2000/svg">
<path d="M12.5 0C5.60759 0 0 5.60759 0 12.5C0 19.3924 5.60759 25 12.5 25C19.3924 25 25 19.3924 25 12.5C25 5.60759 19.3924 0 12.5 0ZM17.8571 18.3036H7.14286C6.65 18.3036 6.25 17.9036 6.25 17.4107C6.25 16.9179 6.65 16.5179 7.14286 16.5179H17.8571C18.35 16.5179 18.75 16.9179 18.75 17.4107C18.75 17.9036 18.35 18.3036 17.8571 18.3036ZM17.8571 13.3929H7.14286C6.65 13.3929 6.25 12.9929 6.25 12.5C6.25 12.0071 6.65 11.6071 7.14286 11.6071H17.8571C18.35 11.6071 18.75 12.0071 18.75 12.5C18.75 12.9929 18.35 13.3929 17.8571 13.3929ZM17.8571 8.48214H7.14286C6.65 8.48214 6.25 8.08214 6.25 7.58929C6.25 7.09643 6.65 6.69643 7.14286 6.69643H17.8571C18.35 6.69643 18.75 7.09643 18.75 7.58929C18.75 8.08214 18.35 8.48214 17.8571 8.48214Z" fill="#FF7A00"/>
</svg>
