<svg width="47" height="50" viewBox="0 0 47 50" fill="none" xmlns="http://www.w3.org/2000/svg">
<path d="M34.7147 24.9627C35.2809 24.5773 35.745 24.06 36.0669 23.4554C36.3888 22.8508 36.5588 22.1769 36.5624 21.492C36.5624 21.3801 36.5581 21.2683 36.5493 21.1586L36.5624 21.1575C37.1184 20.9196 37.8312 20.6312 38.5122 20.4108C39.1526 20.2046 39.7656 20.0588 40.1987 20.0741C40.5376 20.0741 40.7536 20.2594 40.7843 20.5369C40.815 20.7211 40.7843 21.1224 40.6604 22.2311L40.5069 23.649C40.5048 23.6657 40.5065 23.6826 40.5118 23.6985C40.5171 23.7144 40.5259 23.729 40.5376 23.7411C41.7261 24.6426 42.6952 25.8014 43.3723 27.1307C43.403 27.1625 43.4348 27.1932 43.4655 27.1932L46.0841 27.4706C46.1608 27.4771 46.2322 27.5126 46.2837 27.5699C46.3352 27.6271 46.3631 27.7018 46.3616 27.7787V33.6027C46.3579 33.6782 46.3283 33.7501 46.2778 33.8063C46.2272 33.8624 46.1588 33.8994 46.0841 33.9109L43.4655 34.1883C43.4348 34.1883 43.403 34.219 43.3723 34.2497C42.9878 35.0468 42.4895 35.7837 41.893 36.4374C41.893 36.4681 41.8623 36.4988 41.893 36.5295C42.2314 37.205 42.3304 37.9754 42.1738 38.7145C42.0172 39.4536 41.6143 40.1176 41.031 40.5978C40.3186 41.1704 39.4246 41.4687 38.5111 41.4389C37.5458 41.4154 36.6225 41.0394 35.9155 40.3818L35.3299 39.8269C35.3178 39.8153 35.3032 39.8065 35.2873 39.8012C35.2714 39.7959 35.2544 39.7942 35.2378 39.7962C33.6204 40.0692 31.9648 40.017 30.3678 39.6427C30.3512 39.6407 30.3342 39.6423 30.3183 39.6477C30.3024 39.653 30.2878 39.6618 30.2757 39.6734L29.5059 40.4125C28.8056 41.0717 27.8786 41.4361 26.9169 41.4302H26.794C26.297 41.4186 25.8071 41.3093 25.3523 41.1083C24.8975 40.9074 24.4868 40.6188 24.1436 40.259C23.0031 39.0571 22.9724 37.2083 23.989 35.8825C24.0208 35.8211 24.0208 35.7904 23.989 35.7597C22.8189 34.2497 22.2026 32.493 22.2026 30.6748V30.2439C22.2835 29.2459 22.5553 28.2728 23.0031 27.3774L23.4352 26.5462C24.5131 24.7587 26.2392 23.2794 28.3348 22.3857H28.3369C28.5666 23.4416 29.1992 24.3662 30.1003 24.9627H34.7147Z" fill="#B55701"/>
<path d="M38.51 20.4042L38.5121 20.4108C37.8312 20.6312 37.1184 20.9196 36.5624 21.1576L36.5493 21.1587C36.5026 20.591 36.3398 20.0389 36.0711 19.5367C35.8023 19.0344 35.4333 18.5927 34.9869 18.2389C34.5405 17.885 34.0262 17.6266 33.4759 17.4797C32.9255 17.3327 32.3508 17.3003 31.7875 17.3845C31.2241 17.4687 30.684 17.6676 30.2007 17.969C29.7173 18.2705 29.301 18.6679 28.9775 19.1368C28.654 19.6056 28.4303 20.1359 28.3201 20.6948C28.2099 21.2537 28.2156 21.8292 28.3369 22.3858H28.3347C26.2391 23.2795 24.5131 24.7588 23.4352 26.5462L23.0031 27.3774C22.5553 28.2729 22.2835 29.246 22.2026 30.2439V30.6749C22.2026 32.493 22.8189 34.2498 23.9889 35.7598C24.0207 35.7905 24.0207 35.8212 23.9889 35.8826C22.9724 37.2084 23.0031 39.0572 24.1436 40.2591C24.4868 40.6188 24.8975 40.9074 25.3523 41.1084C25.807 41.3093 26.297 41.4187 26.794 41.4302H26.9168C27.8785 41.4361 28.8056 41.0717 29.5059 40.4126L30.2757 39.6735C30.2878 39.6618 30.3023 39.653 30.3183 39.6477C30.3342 39.6424 30.3511 39.6407 30.3678 39.6428C31.9648 40.0171 33.6204 40.0693 35.2377 39.7963C35.2544 39.7942 35.2713 39.7959 35.2873 39.8012C35.3032 39.8065 35.3178 39.8153 35.3299 39.827L35.9154 40.3819C36.6225 41.0395 37.5458 41.4155 38.5111 41.439L38.51 41.4763V47.7279C38.5098 48.3307 38.2702 48.9086 37.8439 49.3347C37.4176 49.7608 36.8395 50.0002 36.2367 50H4.09027C3.0065 49.9967 1.96807 49.5647 1.20172 48.7983C0.43537 48.032 0.00335483 46.9935 0 45.9098V4.34363H0.0120625C0.169971 6.45017 1.90477 8.05777 4.09027 8.05777H36.2367C36.5353 8.05776 36.8309 8.11654 37.1067 8.23078C37.3825 8.34502 37.6331 8.51246 37.8442 8.72355C38.0553 8.93464 38.2227 9.18525 38.3369 9.46105C38.4512 9.73686 38.51 10.0325 38.51 10.331V20.4042Z" fill="#FF7A00"/>
<path d="M36.5494 21.1587C36.5582 21.2684 36.5626 21.3802 36.5626 21.4921C36.559 22.177 36.3889 22.8509 36.067 23.4555C35.7452 24.0601 35.2811 24.5774 34.7149 24.9628H30.1004C29.1994 24.3663 28.5667 23.4417 28.3371 22.3858C28.2736 22.0922 28.2416 21.7925 28.2417 21.4921C28.2417 20.4175 28.6575 19.3846 29.4019 18.6097C30.1464 17.8348 31.1617 17.378 32.2354 17.3349C33.3091 17.2918 34.3579 17.6658 35.162 18.3786C35.9662 19.0914 36.4633 20.0876 36.5494 21.1587Z" fill="#FEDB41"/>
<path d="M34.6873 2.27213V8.05772H4.09027C1.90477 8.05772 0.169971 6.45013 0.0120625 4.34358C0.00438642 4.23941 0 4.13523 0 4.02886C0.00284957 3.49927 0.111179 2.97555 0.318662 2.48828C0.526145 2.00102 0.828625 1.55997 1.20844 1.19089C1.97546 0.430994 3.01057 0.00324208 4.09027 4.24068e-08H32.414C33.0168 -0.000116309 33.5949 0.239195 34.0212 0.665296C34.4475 1.0914 34.6871 1.66939 34.6873 2.27213Z" fill="#E3E1D7"/>
<path d="M21.5397 27.6397C20.8018 27.6403 20.0804 27.422 19.4667 27.0124C18.853 26.6028 18.3746 26.0203 18.0922 25.3386C17.8097 24.657 17.7358 23.9069 17.8799 23.1833C18.0239 22.4596 18.3795 21.795 18.9015 21.2736C19.0249 21.1502 19.1922 21.0808 19.3667 21.0808C19.5412 21.0808 19.7086 21.1501 19.832 21.2735C19.9554 21.3969 20.0247 21.5642 20.0247 21.7387C20.0247 21.9132 19.9554 22.0806 19.832 22.204C19.3809 22.6572 19.1279 23.2709 19.1287 23.9104C19.1294 24.5499 19.3838 25.163 19.8361 25.6152C20.2884 26.0673 20.9015 26.3215 21.541 26.3221C22.1806 26.3227 22.7942 26.0695 23.2473 25.6182C23.3707 25.4948 23.538 25.4255 23.7125 25.4255C23.8871 25.4255 24.0544 25.4948 24.1778 25.6182C24.3012 25.7416 24.3705 25.909 24.3705 26.0835C24.3705 26.258 24.3012 26.4254 24.1778 26.5488C23.8316 26.8954 23.4203 27.1702 22.9675 27.3574C22.5148 27.5446 22.0296 27.6405 21.5397 27.6397Z" fill="#E8895F"/>
<path d="M37.8563 30.1923C37.5433 30.1923 37.2374 30.0995 36.9772 29.9257C36.717 29.7518 36.5141 29.5046 36.3944 29.2155C36.2746 28.9264 36.2433 28.6082 36.3043 28.3013C36.3654 27.9943 36.5161 27.7124 36.7374 27.4911C36.9587 27.2698 37.2406 27.1191 37.5476 27.058C37.8545 26.9969 38.1727 27.0283 38.4618 27.148C38.751 27.2678 38.9981 27.4706 39.172 27.7308C39.3459 27.9911 39.4387 28.297 39.4387 28.61C39.4382 29.0295 39.2713 29.4317 38.9747 29.7284C38.678 30.025 38.2758 30.1919 37.8563 30.1923Z" fill="#FF7A00"/>
</svg>
