<svg width="50" height="50" viewBox="0 0 50 50" fill="none" xmlns="http://www.w3.org/2000/svg">
<g clip-path="url(#clip0)">
<path d="M11.0171 40.6818H15.2544V46.614H11.0171V40.6818Z" fill="#B55701"/>
<path d="M26.2715 40.6818H30.5088V46.614H26.2715V40.6818Z" fill="#B55701"/>
<path d="M47.8815 25.4276C46.673 25.464 45.7223 26.4734 45.7587 27.6818C45.7596 27.7115 45.7612 27.7403 45.7629 27.7699V27.9699H42.373V29.6648H45.7629V31.3597H47.4578V29.6648H47.8815C49.0519 29.6648 50.0002 28.7165 50.0002 27.5462C50.0002 26.3759 49.0519 25.4276 47.8815 25.4276ZM47.8815 27.9699H47.4578V27.7699C47.4578 27.4572 47.5688 27.1224 47.8815 27.1224C48.1154 27.1224 48.3053 27.3123 48.3053 27.5462C48.3053 27.7802 48.1154 27.9699 47.8815 27.9699Z" fill="#A67C52"/>
<path d="M23.7288 12.7157H20.339C12.2839 12.714 5.33984 18.3827 3.72881 26.275H2.54238C1.13818 26.275 0 27.4132 0 28.8174V33.9021C0 35.3063 1.13818 36.4445 2.54238 36.4445H4.38897C6.22627 40.5666 10.3169 43.2224 14.8305 43.2242H33.8982C39.4194 43.2521 43.944 38.8496 44.0678 33.3302C44.2194 22.0979 35.2381 12.87 24.0059 12.7175C23.9136 12.7166 23.8212 12.7157 23.7288 12.7157Z" fill="#FF7A00"/>
<path d="M15.5735 13.4064C8.33369 10.4912 3.38965 11.5183 3.38965 14.4106C3.38965 16.8496 5.13965 19.281 6.12441 20.4572C8.32949 17.053 11.682 14.5514 15.5735 13.4064Z" fill="#B55701"/>
<path d="M30.5083 39.8344V48.309H37.288V40.6818" fill="#FF7A00"/>
<path d="M13.5591 13.5631C13.5565 16.7538 14.843 19.8106 17.1277 22.0377H33.7192C38.404 17.4564 38.487 9.94446 33.9057 5.25979C29.3243 0.575126 21.8125 0.491923 17.1277 5.07327C14.8439 7.30804 13.5574 10.3682 13.5591 13.5631Z" fill="#EEB83B"/>
<path d="M2.54248 28.8174H4.2374V30.5123H2.54248V28.8174Z" fill="#F2F2F2"/>
<path d="M15.2544 39.8344V48.309H22.0341V40.6818" fill="#FF7A00"/>
<path d="M25.4238 22.0343C30.1042 22.0343 33.8984 18.2401 33.8984 13.5597C33.8984 8.8793 30.1042 5.08508 25.4238 5.08508C20.7434 5.08508 16.9492 8.8793 16.9492 13.5597C16.9492 18.2401 20.7434 22.0343 25.4238 22.0343Z" fill="#FED856"/>
<path d="M8.47461 22.8853H10.1695V24.5802H8.47461V22.8853Z" fill="#F2F2F2"/>
<path d="M26.2712 9.44871V8.47839H24.5763V9.44871C23.3051 9.84451 22.5958 11.1953 22.9907 12.4657C23.1865 13.0936 23.6297 13.6148 24.2187 13.9081L25.8703 14.7335C26.2279 14.9114 26.3745 15.3454 26.1966 15.7038C26.0745 15.9504 25.8229 16.1063 25.5475 16.1054H25.3C24.9009 16.1046 24.5771 15.7808 24.5763 15.3817V15.258H22.8813V15.3817C22.8855 16.4351 23.5712 17.3639 24.5763 17.6775V18.6478H26.2712V17.6775C27.5424 17.2817 28.2517 15.9309 27.8567 14.6605C27.6609 14.0326 27.2178 13.5114 26.6288 13.2181L24.9771 12.3927C24.6195 12.2148 24.473 11.7809 24.6509 11.4224C24.773 11.1759 25.0246 11.0199 25.3 11.0208H25.5475C25.9466 11.0217 26.2703 11.3454 26.2712 11.7445V11.8682H27.9661V11.7445C27.9618 10.692 27.2763 9.76316 26.2712 9.44871Z" fill="#CD9829"/>
<path d="M19.4917 12.7157H21.1866V14.4106H19.4917V12.7157Z" fill="#CD9829"/>
<path d="M29.6611 12.7157H31.3561V14.4106H29.6611V12.7157Z" fill="#CD9829"/>
<path d="M13.5591 21.1903H37.2879V22.8852H13.5591V21.1903Z" fill="#B55701"/>
</g>
<defs>
<clipPath id="clip0">
<rect width="50" height="50" fill="white"/>
</clipPath>
</defs>
</svg>
